<svg version="1.1" xmlns="http://www.w3.org/2000/svg" xmlns:xlink="http://www.w3.org/1999/xlink" width="350" height="380" viewBox="0 0 350 380"><defs/><g><path fill="rgb(255,255,255)" stroke="#000000" paint-order="fill stroke markers" d=" M 325 195 A 150 150 0 1 1 324.9999250000062 194.8500000249999" fill-opacity="1" stroke-linecap="round" stroke-miterlimit="10" stroke-dasharray=""/><path fill="none" stroke="#000000" paint-order="fill stroke markers" d=" M 200 120 L 225 210" stroke-linecap="round" stroke-miterlimit="10" stroke-dasharray=""/><path fill="none" stroke="#000000" paint-order="fill stroke markers" d=" M 115 265 L 245 250" stroke-linecap="round" stroke-miterlimit="10" stroke-width="2" stroke-dasharray=""/><path fill="none" stroke="#000000" paint-order="fill stroke markers" d=" M 200 120 L 90 240" stroke-linecap="round" stroke-miterlimit="10" stroke-width="3" stroke-dasharray=""/><path fill="none" stroke="#000000" paint-order="fill stroke markers" d=" M 130 95 L 250 250" stroke-linecap="round" stroke-miterlimit="10" stroke-width="3" stroke-dasharray=""/><path fill="none" stroke="#000000" paint-order="fill stroke markers" d=" M 250 130 L 177 300" stroke-linecap="round" stroke-miterlimit="10" stroke-width="3" stroke-dasharray=""/><path fill="none" stroke="#000000" paint-order="fill stroke markers" d=" M 150 105 L 180 280" stroke-linecap="round" stroke-miterlimit="10" stroke-width="3" stroke-dasharray=""/><path fill="none" stroke="#000000" paint-order="fill stroke markers" d=" M 245 170 L 100 150" stroke-linecap="round" stroke-miterlimit="10" stroke-width="3" stroke-dasharray=""/><path fill="none" stroke="#000000" paint-order="fill stroke markers" d=" M 50 190 L 280 210" stroke-linecap="round" stroke-miterlimit="10" stroke-width="3" stroke-dasharray=""/><path fill="none" stroke="#000000" paint-order="fill stroke markers" d=" M 230 130 L 176 230" stroke-linecap="round" stroke-miterlimit="10" stroke-width="4" stroke-dasharray=""/><path fill="none" stroke="#000000" paint-order="fill stroke markers" d=" M 230 220 L 100 150" stroke-linecap="round" stroke-miterlimit="10" stroke-width="5" stroke-dasharray=""/><path fill="none" stroke="#000000" paint-order="fill stroke markers" d=" M 250 135 L 115 265" stroke-linecap="round" stroke-miterlimit="10" stroke-width="5" stroke-dasharray=""/><path fill="none" stroke="#000000" paint-order="fill stroke markers" d=" M 115 200 L 230 290" stroke-linecap="round" stroke-miterlimit="10" stroke-width="5" stroke-dasharray=""/><path fill="rgb(0,0,0)" stroke="#000000" paint-order="fill stroke markers" d=" M 108.5 150 A 8.5 8.5 0 1 1 108.49999575000035 149.99150000141665" fill-opacity="1" stroke-linecap="round" stroke-miterlimit="10" stroke-width="5" stroke-dasharray=""/><path fill="rgb(0,0,0)" stroke="#000000" paint-order="fill stroke markers" d=" M 206 120 A 6 6 0 1 1 205.99999700000026 119.994000001" fill-opacity="1" stroke-linecap="round" stroke-miterlimit="10" stroke-width="5" stroke-dasharray=""/><path fill="rgb(0,0,0)" stroke="#000000" paint-order="fill stroke markers" d=" M 202.5 260 A 7.5 7.5 0 1 1 202.49999625000032 259.99250000125" fill-opacity="1" stroke-linecap="round" stroke-miterlimit="10" stroke-width="5" stroke-dasharray=""/><path fill="rgb(0,0,0)" stroke="#000000" paint-order="fill stroke markers" d=" M 254.5 250 A 9.5 9.5 0 1 1 254.49999525000038 249.9905000015833" fill-opacity="1" stroke-linecap="round" stroke-miterlimit="10" stroke-width="5" stroke-dasharray=""/><path fill="rgb(0,0,0)" stroke="#000000" paint-order="fill stroke markers" d=" M 261 137 A 11 11 0 1 1 260.99999450000047 136.98900000183332" fill-opacity="1" stroke-linecap="round" stroke-miterlimit="10" stroke-width="5" stroke-dasharray=""/><path fill="rgb(0,0,0)" stroke="#000000" paint-order="fill stroke markers" d=" M 216 160 A 6 6 0 1 1 215.99999700000026 159.994000001" fill-opacity="1" stroke-linecap="round" stroke-miterlimit="10" stroke-width="5" stroke-dasharray=""/><path fill="rgb(0,0,0)" stroke="#000000" paint-order="fill stroke markers" d=" M 126.5 260 A 6.5 6.5 0 1 1 126.49999675000026 259.9935000010833" fill-opacity="1" stroke-linecap="round" stroke-miterlimit="10" stroke-width="5" stroke-dasharray=""/><path fill="rgb(0,0,0)" stroke="#000000" paint-order="fill stroke markers" d=" M 162 230 A 12 12 0 1 1 161.9999940000005 229.988000002" fill-opacity="1" stroke-linecap="round" stroke-miterlimit="10" stroke-width="5" stroke-dasharray=""/><path fill="rgb(0,0,0)" stroke="#000000" paint-order="fill stroke markers" d=" M 199 200 A 9 9 0 1 1 198.99999550000038 199.9910000015" fill-opacity="1" stroke-linecap="round" stroke-miterlimit="10" stroke-width="5" stroke-dasharray=""/><path fill="rgb(0,0,0)" stroke="#000000" paint-order="fill stroke markers" d=" M 229.5 215 A 4.5 4.5 0 1 1 229.49999775000018 214.99550000074998" fill-opacity="1" stroke-linecap="round" stroke-miterlimit="10" stroke-width="5" stroke-dasharray=""/></g></svg>